<?xml version="1.0" encoding="UTF-8" standalone="no"?>
<!-- Created with Inkscape (http://www.inkscape.org/) -->

<svg
   width="210mm"
   height="297mm"
   viewBox="0 0 210 297"
   version="1.1"
   id="svg5"
   inkscape:version="1.1.2 (b8e25be833, 2022-02-05)"
   sodipodi:docname="drawing.svg"
   xmlns:inkscape="http://www.inkscape.org/namespaces/inkscape"
   xmlns:sodipodi="http://sodipodi.sourceforge.net/DTD/sodipodi-0.dtd"
   xmlns="http://www.w3.org/2000/svg"
   xmlns:svg="http://www.w3.org/2000/svg">
  <sodipodi:namedview
     id="namedview7"
     pagecolor="#ffffff"
     bordercolor="#666666"
     borderopacity="1.0"
     inkscape:pageshadow="2"
     inkscape:pageopacity="0.0"
     inkscape:pagecheckerboard="0"
     inkscape:document-units="mm"
     showgrid="false"
     inkscape:zoom="0.70710678"
     inkscape:cx="398.10112"
     inkscape:cy="492.14632"
     inkscape:window-width="1600"
     inkscape:window-height="837"
     inkscape:window-x="-8"
     inkscape:window-y="-8"
     inkscape:window-maximized="1"
     inkscape:current-layer="layer1-5" />
  <defs
     id="defs2" />
  <g
     inkscape:label="Слој 1"
     inkscape:groupmode="layer"
     id="layer1">
    <path
       style="fill:#fbebd5;fill-opacity:1;stroke:none;stroke-width:1.05363px;stroke-linecap:butt;stroke-linejoin:miter;stroke-opacity:1"
       d="m 96.011593,135.31984 21.693237,-1.86708 -0.0938,9.31943 -13.76993,0.43936 -0.0738,-5.85397 c 0,0 -1.80458,2.5558 -3.02709,3.49382 -0.833937,0.63986 -1.770468,1.03629 -2.836616,1.37761 -1.972966,0.63166 -4.214529,0.85877 -6.282567,0.98043 -1.986892,0.11707 -3.997748,0.23694 -5.970925,-0.0239 -1.554143,-0.20549 -3.127778,-0.53617 -4.546425,-1.20323 -0.820663,-0.38588 -1.596788,-0.91679 -2.213684,-1.58151 -1.225695,-1.32067 -2.296104,-2.89198 -2.805822,-4.62019 -0.624386,-2.11699 -0.479405,-4.43155 -0.184377,-6.61891 0.123927,-0.91882 0.389303,-1.83492 0.811296,-2.66045 0.886179,-1.73356 2.035471,-3.40593 3.530724,-4.65284 0.846452,-0.70586 1.903819,-1.14676 2.95017,-1.49298 1.184205,-0.39185 2.449731,-0.48279 3.687716,-0.63532 1.294262,-0.15949 2.598133,-0.24288 3.901275,-0.2915 1.285991,-0.048 3.860656,0 3.860656,0 0,0 1.581799,0.10676 2.346981,0.29743 0.938358,0.23384 1.892616,0.5161 2.712731,1.02856 1.561417,0.9757 4.024187,3.78368 4.024187,3.78368 l -0.19844,-5.73712 c 0,0 -0.0668,-3.00975 -0.73329,-4.26932 -0.69578,-1.31492 -1.53919,-2.13797 -3.043417,-2.69897 -1.152964,-0.43001 -2.686244,-0.53989 -3.914811,-0.45391 -0.946393,0.0662 -2.046406,0.0958 -2.837433,0.61963 -1.058023,0.70054 -1.75534,3.37793 -1.75534,3.37793 l -8.410223,-0.0358 -5.084703,0.0358 0.271827,-3.68771 c 0,0 0.719821,-2.53105 1.093163,-3.24653 0.816274,-1.56432 1.896865,-2.10444 3.11296,-2.78022 1.173214,-0.65196 2.544571,-0.88584 3.86367,-1.13375 2.006648,-0.37711 4.062739,-0.43907 6.10263,-0.52681 2.485328,-0.10688 4.977486,-0.10425 7.46288,0.001 2.538317,0.10756 5.098827,0.16845 7.594577,0.64377 1.65134,0.31448 3.40175,0.56408 4.82985,1.45085 1.61303,1.0016 2.94843,2.51292 3.88791,4.16291 0.77352,1.35854 1.04265,2.96254 1.31387,4.50215 0.4093,2.32334 0.42984,4.70355 0.45834,7.06249 0.0195,1.62488 -0.19808,4.87095 -0.19808,4.87095 l -18.584953,0.45386 c 0,0 -4.74175,-0.72283 -6.808636,0.21743 -1.082833,0.49261 -2.143804,1.45929 -2.429669,2.61406 -0.369073,1.49083 0.06603,3.41278 1.200086,4.44844 1.272615,1.16217 5.093253,0.88927 5.093253,0.88927"
       id="path11252"
       sodipodi:nodetypes="cccccssssssssssssscssccssssccccssssssssssccsssc" />
    <path
       style="fill:#fbebd5;fill-opacity:1;stroke:none;stroke-width:1.05363px;stroke-linecap:butt;stroke-linejoin:miter;stroke-opacity:1"
       d="m 123.49966,133.56506 13.49914,-1.09682 -0.32874,9.97056 -13.43597,0.12504 0.26557,-8.99471"
       id="path16235"
       sodipodi:nodetypes="ccccc" />
    <path
       style="fill:#fbebd5;fill-opacity:1;stroke:none;stroke-width:1.05363px;stroke-linecap:butt;stroke-linejoin:miter;stroke-opacity:1"
       d="m 123.11253,91.19315 0.29859,35.25461 h 30.56483 l -2.46827,-3.64123 12.27969,-18.82218 -15.76023,0.5679 -8.31106,13.99329 -2.95755,-0.0199 0.23814,-31.610011 -13.90795,0.06332 z"
       id="path16237"
       sodipodi:nodetypes="ccccccccccc" />
    <path
       style="fill:#fbebd5;fill-opacity:1;stroke:none;stroke-width:1.05363px;stroke-linecap:butt;stroke-linejoin:miter;stroke-opacity:1"
       d="m 144.193,131.6696 6.17923,11.00797 15.78327,0.11349 -8.48654,-11.55246 z"
       id="path16239" />
    <path
       style="fill:#fbebd5;fill-opacity:1;stroke:none;stroke-width:1.05363px;stroke-linecap:butt;stroke-linejoin:miter;stroke-opacity:1"
       d="m 193.97255,113.49856 8.69424,-0.26164 3.95112,-0.39503 c 0,0 -0.40205,-1.78437 -0.79199,-2.60331 -0.63016,-1.32346 -1.48747,-2.54811 -2.45918,-3.64558 -0.77073,-0.87048 -1.60831,-1.73906 -2.63408,-2.2864 -2.24774,-1.19934 -4.86593,-1.56548 -7.37542,-2.00505 -2.73266,-0.47866 -5.52199,-0.75084 -8.29526,-0.67642 -1.96393,0.0527 -3.92554,0.35338 -5.84028,0.79338 -1.53088,0.35179 -3.03476,0.84756 -4.47794,1.46769 -0.66848,0.28724 -1.34973,0.58592 -1.92077,1.03678 -1.64555,1.29921 -3.27385,2.80508 -4.1903,4.69079 -0.89777,1.84727 -1.28112,4.02312 -1.07681,6.06681 0.15626,1.56307 0.90353,3.04676 1.72585,4.3852 0.6006,0.97756 1.41309,1.82904 2.28744,2.57192 0.90172,0.76615 1.90554,1.4467 2.99863,1.89973 1.55199,0.64321 3.64712,1.312 5.28982,1.664 2.04433,0.43806 5.77333,0.694 5.77333,0.694 l 7.24899,0.19712 5.40768,0.0398 3.09505,0.39503 -8.62284,0.98903 0.91815,0.8219 0.62559,2.04141 c 0,0 0.0469,1.5457 -0.39511,2.10728 -0.56115,0.71298 -2.48254,1.11626 -2.48254,1.11626 l -3.27952,0.26681 -2.86456,-0.19752 c 0,0 -2.30452,-1.1398 -3.22675,-2.00848 -0.69512,-0.65472 -1.65649,-2.33729 -1.65649,-2.33729 l -14.07653,1.26228 0.18437,1.34548 0.5673,1.67218 c 0,0 1.32298,2.57288 2.29859,3.61599 0.6992,0.74758 3.31384,2.65499 3.31384,2.65499 0,0 2.46785,1.08254 4.29338,1.57008 1.73176,0.4625 3.57116,0.68765 5.35878,0.81926 1.59472,0.11748 4.78736,-0.0669 4.78736,-0.0669 0,0 4.52745,-0.23415 6.75834,-0.60725 1.57588,-0.26362 3.15768,-0.58694 4.6539,-1.1474 1.42653,-0.53433 2.80117,-1.23823 4.06386,-2.09039 1.29775,-0.87577 2.64066,-1.79866 3.55514,-3.06943 0.84524,-1.17456 1.36866,-2.59677 1.6463,-4.017 0.27752,-1.4195 0.47853,-2.4235 0.40673,-3.66397 -0.0552,-0.95323 -0.35991,-2.12555 -0.60433,-2.78946 -0.50717,-1.37756 -1.52063,-2.54448 -2.55208,-3.58899 -0.90228,-0.91371 -3.1112,-2.27182 -3.1112,-2.27182 l -4.28214,-1.6783 -6.10264,-1.19797 -5.22391,-0.73226 c 0,0 -2.62073,-0.39444 -3.73302,-1.05366 -0.62856,-0.37249 -1.37456,-0.85183 -1.53515,-1.56462 -0.24534,-1.08895 1.09368,-3.16512 1.09368,-3.16512 l 1.44395,-0.99119 c 1.26995,-0.87174 3.50639,-1.0273 4.8305,-0.43024 0,0 2.09434,0.84443 2.6751,1.48882 0.93628,1.03888 0.51212,1.82623 1.20009,2.39593 0.44405,0.36772 2.12939,0.44943 2.12939,0.44943"
       id="path16791"
       sodipodi:nodetypes="cccsssssssssssssscccccccscccsccccscsscssssssssccccsscssssc" />
    <path
       style="fill:#fffefb;fill-opacity:1;stroke:none;stroke-width:1.05363px;stroke-linecap:butt;stroke-linejoin:miter;stroke-opacity:1"
       d="m 42.199976,87.139292 -0.168568,2.627796 -0.500475,-0.08203 -3.424307,0.702745 c 0,0 -2.544389,1.660074 -3.73829,2.596178 -1.529524,1.199249 -2.433782,2.039341 -3.569662,3.616465 -0.883065,1.22613 -2.569855,4.415384 -2.569855,4.415384 l -1.947113,5.64429 -1.946058,5.41779 -3.087143,4.31041 -2.941744,3.7783 -2.502376,3.65505 -2.471824,4.25564 -2.093568,3.02391 -3.1608985,3.71511 -2.0883032,1.6795 -2.2674161,1.32019 -2.6245987,1.68687 -0.72595325,0.81445 0.76915255,0.6448 1.8881084,0.47206 1.7121534,-0.47206 2.7099458,-0.86924 1.6162732,-0.6227 1.2316974,-0.48046 0.519439,1.12845 c 0,0 0.880679,0.73834 1.386765,0.90341 0.840171,0.27398 2.052116,0.96294 2.665213,0.32654 1.315475,-1.36567 -1.467875,-2.06431 -1.508657,-3.22186 -0.03385,-0.95706 1.105309,-3.77954 1.105309,-3.77954 1.337094,-2.61724 1.881717,-2.44262 3.620384,-4.29273 l 3.192505,-2.49077 4.357826,-4.30406 2.107266,-3.18304 2.11148,-4.52954 0.393007,4.07963 -1.584662,6.32179 -1.251716,6.94238 -0.535244,3.03868 0.340322,3.17882 1.053631,1.76484 2.370675,1.15369 2.985995,-0.0119 2.050368,-1.10738 2.945957,-3.85209 2.696248,-5.8845 1.255928,-3.71933 1.82384,-3.44223 1.673167,-4.21452 0.109591,-0.609 1.492995,0.52681 1.667903,0.52681 1.45612,0.57109 0.467812,1.44874 -0.870301,0.86502 -2.481306,1.59098 -1.716366,1.19801 -0.486777,1.7016 0.145392,2.28321 1.21484,2.15153 0.586874,4.08282 0.05902,1.54463 0.340322,1.65103 2.0746,2.15996 h 0.702773 l 3.600266,-0.52685 1.092617,-3.60025 0.01593,-1.93131 -1.297021,-2.5898 -0.868191,-3.07345 0.402484,-0.25287 2.741513,-0.0808 2.302229,-0.38468 2.888008,-1.87757 2.701511,-2.60144 1.566754,-3.56864 -0.07061,-2.24741 -0.492048,-1.62997 3.415876,5.04163 3.940587,4.28512 6.550329,4.58888 2.704717,2.42972 c 0.796785,0.7158 1.33911,1.47203 2.248289,2.75622 0.632869,0.89389 0.738108,0.8954 0.969161,1.88475 0.149453,0.64006 -0.0056,0.17641 -0.816713,1.40895 -0.208151,0.31619 -0.96681,1.40872 -0.200744,1.74633 0.629141,0.27716 1.614804,-0.72982 2.060527,-1.25329 1.157866,-1.35981 1.049279,-1.60954 2.061626,-1.97515 0.910068,-0.32853 2.353883,1.21877 2.353883,1.21877 l 1.74746,0.84363 c 0,0 3.384297,1.56884 3.821526,0.36597 0.274575,-0.75523 -1.987206,-1.36495 -1.987206,-1.36495 l -2.448448,-1.47505 -1.718478,-1.7185 -4.99527,-3.44749 -3.419038,-4.76873 -4.618073,-5.50734 -3.134556,-5.63059 -3.714054,-6.66211 -2.162054,-6.02468 -2.404393,-5.760184 -4.353609,-4.880427 -2.933313,-2.310651 -2.019813,-0.58053 -0.867139,-2.83324 c 0,0 -0.862433,-3.075439 -1.966825,-4.350152 -0.493168,-0.569221 -1.110279,-1.143339 -1.827854,-1.475776 -0.548791,-0.254465 -1.229789,-0.43717 -1.864318,-0.550743 -4.953405,-0.274774 -6.735283,1.401547 -7.643241,6.016439 z"
       id="path92"
       sodipodi:nodetypes="ccccssccccccccccccccccccccsssccccccccccccccccccccccccccccccccccccccccccccccccccccsssssssccascccccccccccccssccc" />
    <g
       inkscape:label="Слој 1"
       id="layer1-5"
       transform="translate(59.965627,55.335474)" />
  </g>
</svg>
